<svg xmlns="http://www.w3.org/2000/svg" width="800" height="369" viewBox="0 0 800 369">
<rect width="800" height="369" fill="#FCF7F4"/>
<polygon points="79.54482613098253,87.61388071938559 79.28576492969621,123.85967804047866 67.62104467712237,123.77669279527451 66.66666666666666,257.31147262241575 201.45745866181517,258.27048000447206 200.90105020264073,336.12184818492096 424.1738068002802,337.7103769600338 516.416456664728,271.43117404820543 563.7825184927082,337.0528025105824 704.4982598391973,338.05395003680155 732.0528048109438,338.25 732.6622534656055,252.97737137302525 733.3333333333334,159.08129190644635 636.3393721720305,158.3912249182446 636.8170327494189,91.55734292555523 573.7448632455793,30.750000000000018 475.4775872152342,132.21486768510266 425.77043574474584,84.2926261735358 183.0945601235467,88.35060186896153" fill="white" stroke="#191919" stroke-width="2"/>
<circle cx="474.94648957469866" cy="204.42086898325144" r="3" fill="#349552"/>
<text x="474.94648957469866" y="194.42086898325144" text-anchor="middle" font-family="sans-serif" font-size="14" fill="#191919">Unidentified</text>
<rect x="557.1181650042149" y="196.4002959654904" width="41.69285730588972" height="10" fill="#F17F38" stroke="#191919" stroke-width="1"/>
<rect x="445.43186799077876" y="191.68252188684988" width="38.67568446171996" height="10" fill="#F17F38" stroke="#191919" stroke-width="1"/>
<rect x="497.2720288217248" y="190.02492864840355" width="35.51575925409181" height="10" fill="#35B0FE" stroke="#191919" stroke-width="1"/>
<rect x="505.76642780159375" y="151.22331263955877" width="19.298509377442365" height="26.544857560784724" fill="#E3F2FD" stroke="#191919" stroke-width="1"/>
<rect x="360.23471864635707" y="147.3650656683137" width="66.5956026096794" height="45.91862160206461" fill="#FFF3E0" stroke="#191919" stroke-width="1"/>
<text x="393.5325199511968" y="170.324376469346" text-anchor="middle" font-family="sans-serif" font-size="10" fill="#191919">Table</text>
<rect x="331.3989401284958" y="156.4940407829887" width="110.00935279337953" height="34.52900803423634" fill="#E3F2FD" stroke="#191919" stroke-width="1"/>
<text x="386.40361652518556" y="173.75854480010685" text-anchor="middle" font-family="sans-serif" font-size="10" fill="#191919">Storage</text>
<rect x="444.9872807300051" y="148.5965151849241" width="23.179855481295316" height="19.920009503194127" fill="#FFF3E0" stroke="#191919" stroke-width="1"/>
<rect x="356.8756695259558" y="229.41641591381287" width="77.48121561750162" height="15.708540918083086" fill="#E3F2FD" stroke="#191919" stroke-width="1"/>
<text x="395.6162773347066" y="237.2706863728544" text-anchor="middle" font-family="sans-serif" font-size="10" fill="#191919">Storage</text>
<rect x="583.8400333010253" y="113.32760243107856" width="46.429396721540236" height="99.8104035130762" fill="#E8F5E9" stroke="#191919" stroke-width="1"/>
<text x="607.0547316617955" y="163.23280418761667" text-anchor="middle" font-family="sans-serif" font-size="10" fill="#191919">Bed</text>
<rect x="322.9360872251058" y="173.17448221567284" width="39.19735579497835" height="25.91466069559654" fill="#D9D9D9" stroke="#191919" stroke-width="1"/>
<text x="342.53476512259493" y="186.1318125634711" text-anchor="middle" font-family="sans-serif" font-size="10" fill="#191919">Refrigerator</text>
<rect x="401.85390237366994" y="139.04808119330303" width="45.03016881730069" height="37.316597670164626" fill="#FFF3E0" stroke="#191919" stroke-width="1"/>
<text x="424.3689867823203" y="157.70638002838535" text-anchor="middle" font-family="sans-serif" font-size="10" fill="#191919">Table</text>
<rect x="459.3510706236996" y="117.64423271024266" width="50.77951590171558" height="95.05661698711478" fill="#E8F5E9" stroke="#191919" stroke-width="1"/>
<text x="484.74082857455744" y="165.17254120380005" text-anchor="middle" font-family="sans-serif" font-size="10" fill="#191919">Bed</text>
<rect x="424.57003480288927" y="148.9703209967795" width="59.43155305061094" height="23.39259868880766" fill="#FFF3E0" stroke="#191919" stroke-width="1"/>
<text x="454.2858113281947" y="160.66662034118332" text-anchor="middle" font-family="sans-serif" font-size="10" fill="#191919">Table</text>
<rect x="349.7015810827044" y="146.24277268111197" width="47.94420462782289" height="40.48616772827076" fill="#E8F5E9" stroke="#191919" stroke-width="1"/>
<text x="373.67368339661584" y="166.48585654524734" text-anchor="middle" font-family="sans-serif" font-size="10" fill="#191919">Sofa</text>
<rect x="423.01295255347446" y="187.66945499492232" width="54.19084089718154" height="4.6584396749038035" fill="#D9D9D9" stroke="#191919" stroke-width="1"/>
<text x="450.1083730020652" y="189.9986748323742" text-anchor="middle" font-family="sans-serif" font-size="10" fill="#191919">Television</text>
</svg>